<svg width="185" height="24" viewBox="0 0 185 24" fill="none" xmlns="http://www.w3.org/2000/svg">
<g id="Logo">
<g id="noun_Running_1473810">
<g id="Group">
<path id="Path" d="M161.979 20.6182C161.979 20.2909 161.759 20.0727 161.429 20.0727H151.849C151.519 20.0727 151.299 20.2909 151.299 20.6182C151.299 20.9455 151.519 21.1636 151.849 21.1636H161.429C161.759 21.1636 161.979 20.8909 161.979 20.6182Z" fill="white"/>
<path id="Path_2" d="M154.051 22.8H152.95C152.62 22.8 152.4 23.0182 152.4 23.3454C152.4 23.6727 152.62 23.8909 152.95 23.8909H154.051C154.382 23.8909 154.602 23.6727 154.602 23.3454C154.602 23.0182 154.382 22.8 154.051 22.8Z" fill="white"/>
<path id="Path_3" d="M156.639 17.8909C156.639 17.5636 156.419 17.3455 156.088 17.3455H150.748C150.418 17.3455 150.198 17.5636 150.198 17.8909C150.198 18.2182 150.418 18.4364 150.748 18.4364H156.088C156.419 18.4364 156.639 18.1636 156.639 17.8909Z" fill="white"/>
<path id="Shape" fill-rule="evenodd" clip-rule="evenodd" d="M184.002 18.8182C183.837 18.4909 183.506 18.2182 183.176 18.0545L178.992 16.4727L177.285 15.8727C176.789 15.6545 176.349 15.3273 176.074 14.8909L174.642 12.5455C174.918 12.4909 175.083 12.2727 175.083 12C175.083 11.6727 174.863 11.4545 174.532 11.4545H173.982L173.321 10.3636C173.596 10.3091 173.761 10.0909 173.761 9.81818C173.761 9.49091 173.541 9.27273 173.211 9.27273H172.66L172.11 8.4C172.33 8.34545 172.495 8.12727 172.495 7.90909C172.495 7.58182 172.275 7.36364 171.945 7.36364H171.449L170.733 6.21818C170.733 6.21818 170.733 6.16364 170.678 6.16364C170.018 5.4 169.137 5.01818 168.201 5.12727C167.375 5.23636 166.714 5.72727 166.439 6.32727C166.384 6.49091 166.384 6.65454 166.494 6.81818L171.064 14.5636C171.119 14.6727 171.229 14.7818 171.339 14.7818L176.955 16.9091H177.01L178.661 17.5091L182.791 19.0909C182.901 19.1455 183.011 19.2 183.066 19.3636C183.286 19.8 183.286 20.2364 183.011 20.6727H174.037C173.486 20.6727 172.936 20.5091 172.495 20.1818L157.135 8.89091C157.135 8.89091 157.355 8.78182 157.63 8.4C157.905 8.01818 158.015 7.52727 158.015 7.03636L157.52 2.45454L158.181 1.41818C158.346 1.2 158.676 1.14545 158.896 1.30909C158.908 1.3211 158.923 1.33517 158.941 1.35195L158.941 1.35196C159.164 1.56371 159.839 2.20642 161.319 4.58182C162.145 5.78182 163.466 6.65454 164.952 6.87273C165.228 6.92727 165.558 6.70909 165.613 6.43636C165.668 6.16363 165.448 5.83636 165.173 5.78182C164.017 5.56364 162.915 4.90909 162.255 3.92727C160.328 0.981817 159.777 0.545453 159.557 0.381817C158.841 -0.109092 157.85 0.0545443 157.3 0.763635L153.941 6.05454C153.721 6.38182 153.666 6.76364 153.721 7.14545C153.391 7.25454 153.06 7.41818 152.895 7.74545L152.014 9.10909C151.519 9.81818 151.739 10.8 152.455 11.2909C152.883 11.6206 153.721 12.1537 154.934 12.9252L154.935 12.9258C155.127 13.0476 155.328 13.1753 155.538 13.3091C155.648 13.3636 155.758 13.4182 155.813 13.4182C155.978 13.4182 156.144 13.3091 156.254 13.1455C156.419 12.8727 156.364 12.5455 156.088 12.3818C155.616 12.0698 155.188 11.7909 154.808 11.5433L154.808 11.5432C153.993 11.0115 153.398 10.6241 153.06 10.3636C152.84 10.2 152.785 9.92727 152.95 9.65454L153.776 8.4C153.941 8.18182 154.272 8.12727 154.492 8.29091L171.779 21.0545C172.44 21.5455 173.211 21.7636 173.982 21.7636H181.579C180.423 22.3091 178.827 22.8 177.45 22.8H175.523H173.927C172.991 22.8 172.055 22.5273 171.284 22.0364C168.091 20.0182 162.145 16.2545 157.795 13.4727C157.52 13.3091 157.19 13.3636 157.024 13.6364C156.859 13.9091 156.914 14.2364 157.19 14.4C159.98 16.1951 163.438 18.392 166.402 20.2751C167.942 21.2529 169.348 22.1461 170.458 22.8545H156.254C155.923 22.8545 155.703 23.0727 155.703 23.4C155.703 23.7273 155.923 23.9455 156.254 23.9455H173.927H175.523H177.395C179.652 23.9455 182.901 22.7455 183.727 21.6C184.442 20.6182 184.497 19.6909 184.002 18.8182ZM171.834 13.9091L167.54 6.65454C167.705 6.49091 167.981 6.32727 168.311 6.27273C168.641 6.21818 169.247 6.27273 169.797 6.87273L170.128 7.41818H169.632C169.302 7.41818 169.082 7.63636 169.082 7.96364C169.082 8.29091 169.302 8.50909 169.632 8.50909H170.788L171.339 9.38182H170.899C170.568 9.38182 170.348 9.6 170.348 9.92727C170.348 10.2545 170.568 10.4727 170.899 10.4727H172L172.66 11.5091H172.22C171.89 11.5091 171.669 11.7273 171.669 12.0545C171.669 12.3818 171.89 12.6 172.22 12.6H173.321L174.863 15L171.834 13.9091ZM156.584 3.98182L154.877 6.65454C154.767 6.87273 154.822 7.14545 155.153 7.41818C155.648 7.8 155.923 7.96364 155.923 7.96364C156.382 8.31671 156.604 7.97015 156.722 7.78658C156.732 7.77163 156.741 7.75777 156.749 7.74545C156.859 7.58182 156.914 7.36364 156.914 7.14545L156.584 3.98182Z" fill="white"/>
</g>
</g>
<path id="ROCKETSHOES" fill-rule="evenodd" clip-rule="evenodd" d="M38.8004 18.5189C38.7547 19.5085 38.4873 20.3825 37.9982 21.141C37.509 21.8994 36.8225 22.487 35.9388 22.9037C35.055 23.3203 34.0457 23.5287 32.9109 23.5287C31.039 23.5287 29.565 22.9199 28.4888 21.7025C27.4127 20.485 26.8746 18.7663 26.8746 16.5462V15.8431C26.8746 14.4499 27.1175 13.2308 27.6034 12.1859C28.0894 11.141 28.7888 10.3337 29.702 9.76401C30.6151 9.19434 31.6716 8.90952 32.8717 8.90952C34.6001 8.90952 35.9893 9.36361 37.0394 10.2718C38.0895 11.18 38.6862 12.4316 38.8297 14.0267H35.4056C35.3795 13.1608 35.161 12.5391 34.7501 12.1615C34.3392 11.7839 33.7131 11.5951 32.8717 11.5951C32.0173 11.5951 31.3912 11.9141 30.9933 12.5521C30.5955 13.1901 30.3868 14.209 30.3672 15.6087V16.6146C30.3672 18.1315 30.558 19.2155 30.9395 19.8665C31.3211 20.5176 31.9782 20.8431 32.9109 20.8431C33.7001 20.8431 34.3033 20.6576 34.7208 20.2865C35.1382 19.9154 35.3599 19.3262 35.386 18.5189H38.8004ZM25.5049 16.5169C25.5049 17.9037 25.2473 19.1309 24.7321 20.1986C24.2168 21.2663 23.4847 22.0882 22.5357 22.6644C21.5867 23.2406 20.5057 23.5287 19.2926 23.5287C18.0794 23.5287 17.0033 23.2503 16.0641 22.6937C15.1249 22.1371 14.3928 21.3412 13.8678 20.306C13.3427 19.2708 13.0672 18.0827 13.0411 16.7415V15.9408C13.0411 14.5475 13.2971 13.3187 13.8091 12.2542C14.3211 11.1898 15.0548 10.3679 16.0103 9.78842C16.9658 9.20899 18.0534 8.91928 19.273 8.91928C20.4796 8.91928 21.5558 9.20574 22.5015 9.77866C23.4472 10.3516 24.1826 11.167 24.7076 12.2249C25.2326 13.2829 25.4984 14.4954 25.5049 15.8626V16.5169ZM3.80569 18.3138H5.6645L8.1788 23.3333H11.8573V23.1869L8.88319 17.4544C9.7376 17.0508 10.3654 16.5235 10.7665 15.8724C11.1676 15.2214 11.3681 14.4011 11.3681 13.4115C11.3681 12.0443 10.892 10.9863 9.93979 10.2376C8.98755 9.48894 7.66682 9.11459 5.97757 9.11459H0.371765V23.3333H3.80569V18.3138ZM5.97757 15.6673H3.80569V11.7611H5.97757C6.62327 11.7611 7.11242 11.9352 7.44506 12.2835C7.77769 12.6318 7.944 13.112 7.944 13.724C7.944 14.336 7.77932 14.8128 7.44995 15.1546C7.12058 15.4964 6.62979 15.6673 5.97757 15.6673ZM21.303 12.7035C21.7759 13.4359 22.0123 14.5085 22.0123 15.9212V16.5755C22.0058 17.9557 21.7677 19.0137 21.2981 19.7494C20.8285 20.485 20.16 20.8529 19.2926 20.8529C18.3795 20.8529 17.6914 20.4785 17.2283 19.7298C16.7652 18.9811 16.5337 17.9102 16.5337 16.5169L16.5435 15.472C16.6413 12.8939 17.5511 11.6048 19.273 11.6048C20.1535 11.6048 20.8302 11.971 21.303 12.7035ZM43.8583 19.5833L45.2671 18.0404L48.2999 23.3333H52.3698L47.5564 15.4037L52.3698 9.11459H48.1238L45.0519 13.5775L43.8583 15.3841V9.11459H40.4244V23.3333H43.8583V19.5833ZM62.0747 17.308H56.6744V20.6966H63.0531V23.3333H53.2405V9.11459H63.0726V11.7611H56.6744V14.7591H62.0747V17.308ZM71.5547 11.7611H75.83V9.11459H63.9238V11.7611H68.1208V23.3333H71.5547V11.7611ZM84.4686 19.554C84.4686 19.0527 84.2909 18.6621 83.9354 18.3822C83.58 18.1022 82.9555 17.8125 82.0619 17.513C81.1684 17.2136 80.4379 16.9238 79.8705 16.6439C78.0247 15.7389 77.1018 14.4955 77.1018 12.9134C77.1018 12.1257 77.3317 11.4307 77.7915 10.8285C78.2513 10.2262 78.9019 9.7575 79.7433 9.42221C80.5847 9.08692 81.5304 8.91928 82.5804 8.91928C83.6044 8.91928 84.5224 9.10157 85.3344 9.46616C86.1464 9.83074 86.7774 10.3499 87.2275 11.0238C87.6775 11.6976 87.9025 12.4675 87.9025 13.3333H84.4784C84.4784 12.7539 84.3007 12.3047 83.9452 11.9857C83.5897 11.6667 83.1087 11.5072 82.5022 11.5072C81.8891 11.5072 81.4048 11.6423 81.0494 11.9124C80.6939 12.1826 80.5162 12.526 80.5162 12.9427C80.5162 13.3073 80.7118 13.6377 81.1032 13.9339C81.4945 14.2302 82.1826 14.5361 83.1674 14.8519C84.1523 15.1677 84.961 15.5078 85.5937 15.8724C87.1329 16.7578 87.9025 17.9785 87.9025 19.5345C87.9025 20.778 87.4329 21.7546 86.4937 22.4642C85.5545 23.1738 84.2664 23.5287 82.6293 23.5287C81.4749 23.5287 80.4298 23.322 79.4938 22.9085C78.5579 22.4951 77.8535 21.9287 77.3806 21.2093C76.9078 20.4899 76.6713 19.6615 76.6713 18.724H80.1151C80.1151 19.4857 80.3123 20.0472 80.7069 20.4085C81.1015 20.7699 81.7423 20.9505 82.6293 20.9505C83.1968 20.9505 83.6452 20.8285 83.9745 20.5843C84.3039 20.3402 84.4686 19.9968 84.4686 19.554ZM98.1554 23.3333H101.57V9.11459H98.1554V14.7591H93.0974V9.11459H89.6635V23.3333H93.0974V17.3958H98.1554V23.3333ZM115.804 16.5169C115.804 17.9037 115.547 19.1309 115.031 20.1986C114.516 21.2663 113.784 22.0882 112.835 22.6644C111.886 23.2406 110.805 23.5287 109.592 23.5287C108.379 23.5287 107.303 23.2503 106.364 22.6937C105.424 22.1371 104.692 21.3412 104.167 20.306C103.642 19.2708 103.367 18.0827 103.34 16.7415V15.9408C103.34 14.5475 103.596 13.3187 104.108 12.2542C104.62 11.1898 105.354 10.3679 106.31 9.78842C107.265 9.20899 108.353 8.91928 109.572 8.91928C110.779 8.91928 111.855 9.20574 112.801 9.77866C113.747 10.3516 114.482 11.167 115.007 12.2249C115.532 13.2829 115.798 14.4954 115.804 15.8626V16.5169ZM111.602 12.7035C112.075 13.4359 112.312 14.5085 112.312 15.9212V16.5755C112.305 17.9557 112.067 19.0137 111.598 19.7494C111.128 20.485 110.459 20.8529 109.592 20.8529C108.679 20.8529 107.991 20.4785 107.528 19.7298C107.065 18.9811 106.833 17.9102 106.833 16.5169L106.843 15.472C106.941 12.8939 107.851 11.6048 109.572 11.6048C110.453 11.6048 111.13 11.971 111.602 12.7035ZM126.409 17.308H121.009V20.6966H127.388V23.3333H117.575V9.11459H127.407V11.7611H121.009V14.7591H126.409V17.308ZM135.601 18.3822C135.956 18.6621 136.134 19.0527 136.134 19.554C136.134 19.9968 135.969 20.3402 135.64 20.5843C135.311 20.8285 134.862 20.9505 134.295 20.9505C133.408 20.9505 132.767 20.7699 132.372 20.4085C131.978 20.0472 131.78 19.4857 131.78 18.724H128.337C128.337 19.6615 128.573 20.4899 129.046 21.2093C129.519 21.9287 130.223 22.4951 131.159 22.9085C132.095 23.322 133.14 23.5287 134.295 23.5287C135.932 23.5287 137.22 23.1738 138.159 22.4642C139.098 21.7546 139.568 20.778 139.568 19.5345C139.568 17.9785 138.798 16.7578 137.259 15.8724C136.626 15.5078 135.818 15.1677 134.833 14.8519C133.848 14.5361 133.16 14.2302 132.769 13.9339C132.377 13.6377 132.182 13.3073 132.182 12.9427C132.182 12.526 132.359 12.1826 132.715 11.9124C133.07 11.6423 133.554 11.5072 134.168 11.5072C134.774 11.5072 135.255 11.6667 135.611 11.9857C135.966 12.3047 136.144 12.7539 136.144 13.3333H139.568C139.568 12.4675 139.343 11.6976 138.893 11.0238C138.443 10.3499 137.812 9.83074 137 9.46616C136.188 9.10157 135.27 8.91928 134.246 8.91928C133.196 8.91928 132.25 9.08692 131.409 9.42221C130.567 9.7575 129.917 10.2262 129.457 10.8285C128.997 11.4307 128.767 12.1257 128.767 12.9134C128.767 14.4955 129.69 15.7389 131.536 16.6439C132.103 16.9238 132.834 17.2136 133.727 17.513C134.621 17.8125 135.245 18.1022 135.601 18.3822Z" fill="white"/>
</g>
</svg>
